<svg width="36px" height="36px" viewBox="0 0 4.5 4.5" xmlns="http://www.w3.org/2000/svg" xmlns:xlink="http://www.w3.org/1999/xlink" aria-hidden="true" role="img" class="iconify iconify--gis" preserveAspectRatio="xMidYMid meet">
  <path d="M0.945 1.44C0.426 1.44 0 1.864 0 2.382c0 0.201 0.064 0.387 0.173 0.541l0.657 1.136c0.092 0.12 0.153 0.097 0.23 -0.006l0.725 -1.233c0.015 -0.027 0.026 -0.055 0.036 -0.084A0.93 0.93 0 0 0 1.89 2.382C1.89 1.864 1.464 1.44 0.945 1.44zm0 0.442c0.28 0 0.502 0.222 0.502 0.501 0 0.279 -0.222 0.501 -0.502 0.501 -0.28 0 -0.502 -0.222 -0.502 -0.501 0 -0.279 0.223 -0.501 0.502 -0.501z" fill="#ef4444"/>
  <path d="M3.949 0C3.646 0 3.397 0.248 3.397 0.55c0 0.117 0.037 0.226 0.101 0.315l0.383 0.663c0.054 0.07 0.089 0.057 0.134 -0.004l0.423 -0.72c0.009 -0.015 0.015 -0.032 0.021 -0.049a0.542 0.542 0 0 0 0.041 -0.206C4.5 0.247 4.252 0 3.949 0zm0 0.258c0.163 0 0.293 0.129 0.293 0.292 0 0.163 -0.13 0.292 -0.293 0.292 -0.163 0 -0.293 -0.129 -0.293 -0.292 0 -0.163 0.13 -0.292 0.293 -0.292z" fill="#ef4444"/>
  <path d="M3.969 1.684c-0.101 0.002 -0.202 0.007 -0.304 0.014l0.016 0.249a5.684 5.684 0 0 1 0.293 -0.014zm-0.539 0.037c-0.156 0.019 -0.314 0.047 -0.469 0.091l0.059 0.241c0.141 -0.04 0.288 -0.066 0.437 -0.085zM2.728 1.895a1.103 1.103 0 0 0 -0.135 0.071l0 0 0 0c-0.062 0.039 -0.127 0.088 -0.18 0.16 -0.039 0.052 -0.07 0.118 -0.077 0.196l0.229 0.025c0.002 -0.018 0.011 -0.042 0.028 -0.065h0v0c0.027 -0.037 0.068 -0.07 0.116 -0.101l0 0a0.884 0.884 0 0 1 0.107 -0.057zM2.61 2.459l-0.149 0.191c0.035 0.032 0.072 0.057 0.108 0.078l0 0 0 0c0.118 0.067 0.241 0.105 0.354 0.141l0.065 -0.239c-0.113 -0.036 -0.22 -0.071 -0.311 -0.123 -0.026 -0.015 -0.049 -0.031 -0.068 -0.048zm0.6 0.238 -0.064 0.24 0.03 0.009 0.037 0.012c0.122 0.04 0.239 0.082 0.344 0.141l0.106 -0.221c-0.126 -0.071 -0.258 -0.117 -0.384 -0.159l0 0 -0.038 -0.012zm0.669 0.346 -0.163 0.176c0.039 0.042 0.067 0.092 0.081 0.144l0 0 0 0c0.017 0.061 0.017 0.132 0.004 0.204l0.226 0.048c0.018 -0.102 0.021 -0.213 -0.009 -0.323 -0.026 -0.097 -0.077 -0.182 -0.139 -0.25zM3.722 3.719a0.533 0.533 0 0 1 -0.082 0.071h0c-0.081 0.057 -0.175 0.1 -0.275 0.137l0.074 0.236c0.109 -0.04 0.221 -0.09 0.326 -0.164l0 0 0 0a0.763 0.763 0 0 0 0.119 -0.103zm-0.569 0.274c-0.145 0.039 -0.292 0.068 -0.442 0.094l0.035 0.247c0.154 -0.026 0.309 -0.057 0.462 -0.098zm-0.667 0.128c-0.151 0.021 -0.302 0.037 -0.454 0.052l0.02 0.248c0.154 -0.014 0.309 -0.032 0.463 -0.053zm-0.682 0.071c-0.152 0.012 -0.305 0.022 -0.457 0.03l0.012 0.249c0.154 -0.008 0.308 -0.018 0.463 -0.031zm-0.687 0.041c-0.091 0.004 -0.183 0.008 -0.275 0.011l0.008 0.249a25.204 25.204 0 0 0 0.277 -0.011z" fill="#fbbf24" fill-rule="evenodd"/>
</svg>
